<?xml version="1.0" encoding="UTF-8"?>
<svg version="1.1" viewBox="0 0 798.85 867.25" xmlns="http://www.w3.org/2000/svg">
 <g transform="translate(29.149 -33.192)">
  <path d="m379.62 33.192c-53.563 0.0199-124.89 40.521-137.76 66.266-16.503 27.425-32.23 138.94-39.378 143.44-76.684 24.781-124.65-19.676-228.93 77.662-18.649 86.836 61.275 175.31 176.45 181.36 13.249 0.69532-25.534-70.594-10.544-110.63 64.852-9.5795 57.839 50.911 69.997 73.687 0.54916 4.3863-4.7764 31.32-1.0139 45.583 6.9003 15.151 4.3018 53.521-18.087 30.537-0.60617 4.4205 27.053 29.998 20.845 47.043-0.29258 15.052-16.659 44.649 3.5283 49.355 22.44 32.202 35.103 84.797 52.315 112.78 41.491 18.516 58.749 37.846 84.515 76.404 14.489 31.767 4.8228 22.113 24.616 51.017 22.419 2.3025 76.975 40.591 79.446 12.491 0.18348-29.052 19.774-52.864 35.688-75.553 20.512-11.348-1.4283-42.977 25.63-46.759 17.869-23.23 11.682-55.873 25.752-81.068 17.613-19.237 18.594-46.044 20.277-70.889-0.29422 0.0674-0.59776 0.10051-0.89235 0.16227 9.5163-25.343 17.327-54.53 19.426-85.57 96.331-8.0487 177.57-74.246 187.52-136.26 5.4458-33.929-21.749-78.177-85.002-101.34-3.2783 8.5577-12.637 54.184-40.148 76.972-62.196 55.976-245.79 2.5916-250.75 2.4333-4.9572-0.15844 227.9 23.941 223.7-4.6232-4.8428-1.5955-9.7822-3.8464-14.397-7.0159-18.919-38.657-44.848-252.49-78.067-298.4-27.445-27.445-37.798-16.1-75.066-16.1-20.258 0-45.172-4.2756-61.926-12.653-2.5392-0.20129-5.1118-0.32543-7.7459-0.32445zm60.477 41.32c4.0577 18.884 7.2545 46.957 9.479 74.138 1.9806 100.3-14.792 100.67 3.9338 144.25 15.783 31.566 66.024 27.78 100.45 39.257 17.44 7.9232-45.08 11.839-54.059 11.558-174.08-7.3038-173.9-3.4991-138.01-136.55 5.4769-27.383 15.883-128.31 35.526-138.13 27.718-16.093 35.367-27.866 42.674 5.4696zm46.911-22.056c0.2553-0.0186 0.52101 2e-3 0.77046 0 15.475-0.15515 12.104 38.789 24.089 50.774 4.2728 9.2639 8.1846 17.455 11.801 24.86-7.3499-10.364-16.084-21.836-26.279-34.066-8.9752-8.9754 0.73409-33.033-11.152-41.446 0.26955-0.0442 0.51516-0.10288 0.77064-0.12152zm-159.58 5.6776c7.613-0.11221 16.915 1.7033 23.927 1.7033 42.87 0-9.9609 46.784-17.114 53.937-9.6654 9.6656-18.679 14.745-28.915 24.982-17.291 17.291-41.214 25.23-50.004 46.07-24.573-32.764 36.224-111.53 63.143-124.99 2.3755-1.1877 5.5018-1.6523 8.9624-1.7033zm-64.968 190.08c5.7348-0.10782 10.998 0.28393 15.735 1.2977-10.119 19.3-4.6527 54.927 4.5014 67.564 1.1632 1.1269 2.2818 2.2575 3.3662 3.4471-1.1661-0.7853-2.283-1.9522-3.3662-3.4471-54.884-53.186-195.64-37.21-270.58-11.315-6.3184 2.8976-13.16 5.6652-20.764 8.192 6.1202-2.7888 13.108-5.5464 20.764-8.192 31.072-14.249 49.572-31.738 84.515-40.473 62.742 7.9452 125.68-16.318 165.83-17.073zm-14.762 169.31c8.195-0.28989 16.279 6.5117 23.481 23.156 26.33-7.5568 45.704-16.073 52.356-15.532 37.305 3.4455-14.688 9.0142-24.332 23.035-1.26 2.8677 20.122 2.395 20.886 2.5955 1.3017 0.3413 1.5457-2.5817 5.1098-7.0565 8.4019 18.079 32.291 13.077 32.93-9.8547 18.88 2.4027 38.846 0.89196 59.939 4.9882 9.8231-0.63166 22.414 9.6862 30.74 24.454 3.8506 13.414 4.6056 44.228 11.031 65.698 21.69 72.483-56.536 26.208-55.154 43.109 0.67232 0.0543 15.596 7.5088 34.431 10.017-0.79494 0.29411-1.6186 0.5844-2.3927 0.8922-20.389 1.3219-39.458 10.545-56.817 21.534-26.563 14.688-51.728 34.878-82.406 39.784-26.306 0.68302-33.095-31.467-38.04-51.91-7.7826-34.235-7.0584-73.382-31.997-100.86-1.6807-17.67-2.4841-35.472-4.9882-53.045 7.9178-12.606 16.641-20.704 25.225-21.007zm244.46 62.738c0.76314-5e-3 1.5407 0.0212 2.3116 0.0406 9.5942 0.24409 19.578 2.3705 24.17 4.7448 11.533 5.9703 27.042-2.7321 39.703 4.2988 6.5394 4.825 10.556 12.73 9.7736 20.926-1.6166 22.148-13.798 38.777-12.207 60.913-5.9182 9.9735-17.751 32.582-32.768 30.01-13.792-4.7275-24.959-11.759-32.727-23.44-1.9563-1.9157-3.3052-4.5709-4.3395-7.7053 0.67452-23.028-16.963-45.55-14.559-77.824-1.0429-8.8441 9.1941-11.88 20.642-11.964zm-21.007 138.66c0.58735-7e-3 1.1884 0.0128 1.7843 0.0406 22.599 3.4855 40.801 22.08 28.631 45.056-4.9155 18.64-35.269 43.034-45.178 14.437-11.948-19.954-39.233-20.256-43.231 5.0693-10.515 14.168-13.471 46.667-37.351 34.471-17.33-4.8419-45.576-18.727-35.89-40.757 4.3735-11.613 3.6324-25.022 20.764-27.982 20.98-7.429 37.694-28.327 60.507-13.829 17.508-0.10617 31.751-16.281 49.963-16.506z"/>
 </g>
</svg>
